<?xml version="1.0" encoding="UTF-8"?>
<svg id="Layer_1" xmlns="http://www.w3.org/2000/svg" version="1.1" viewBox="0 0 119.88 119.66">
  <!-- Generator: Adobe Illustrator 30.3.0, SVG Export Plug-In . SVG Version: 2.1.3 Build 182)  -->
  <defs>
    <style>
      .st0 {
        fill: #ec1e24;
      }

      .st1 {
        fill: #fff;
      }

      .st2 {
        fill: #838383;
      }
    </style>
  </defs>
  <rect class="st1" x="-.55" y="-1.33" width="121.88" height="121.22"/>
  <g>
    <polygon class="st2" points="11.1 113.09 23.96 113.09 23.96 57.89 107.92 115.6 107.92 78.57 19.08 13.1 10.65 6.91 11.1 113.09"/>
    <g>
      <polygon class="st0" points="93.15 13.52 107.85 13.52 107.82 6.91 93.15 6.91 93.15 13.52"/>
      <polygon class="st0" points="91.04 6.91 76.04 6.91 76.09 13.52 91.04 13.52 91.04 6.91"/>
    </g>
    <g>
      <polygon class="st0" points="101.55 24.45 107.91 24.45 107.87 15.61 101.55 15.61 101.55 24.45"/>
      <polygon class="st0" points="82.49 15.61 76.12 15.61 76.18 24.45 82.49 24.45 82.49 15.61"/>
      <rect class="st0" x="84.59" y="15.61" width="14.87" height="8.84"/>
    </g>
    <g>
      <polygon class="st0" points="93.13 35.39 107.97 35.39 107.92 26.55 93.13 26.55 93.13 35.39"/>
      <polygon class="st0" points="91.03 26.55 76.2 26.55 76.27 35.39 91.03 35.39 91.03 26.55"/>
    </g>
    <g>
      <polygon class="st0" points="101.55 46.33 108.03 46.33 107.98 37.49 101.55 37.49 101.55 46.33"/>
      <polygon class="st0" points="82.49 37.49 76.28 37.49 76.35 46.33 82.49 46.33 82.49 37.49"/>
      <rect class="st0" x="84.59" y="37.49" width="14.87" height="8.84"/>
    </g>
    <g>
      <polygon class="st0" points="93.13 57.27 108.08 57.27 108.04 48.43 93.13 48.43 93.13 57.27"/>
      <polygon class="st0" points="91.04 48.43 76.47 48.43 88.87 57.27 91.04 57.27 91.04 48.43"/>
    </g>
    <g>
      <polygon class="st0" points="101.55 66.31 108.15 71.01 108.09 59.37 101.55 59.37 101.55 66.31"/>
      <polygon class="st0" points="99.45 59.37 91.82 59.37 99.45 64.81 99.45 59.37"/>
    </g>
  </g>
</svg>