<?xml version="1.0" encoding="UTF-8"?>
<svg id="Layer_1" xmlns="http://www.w3.org/2000/svg" version="1.1" viewBox="0 0 324.77 119.66">
  <!-- Generator: Adobe Illustrator 30.3.0, SVG Export Plug-In . SVG Version: 2.1.3 Build 182)  -->
  <defs>
    <style>
      .st0 {
        fill: #ec1e24;
      }

      .st1 {
        fill: #231f20;
      }

      .st2 {
        fill: #838383;
      }
    </style>
  </defs>
  <g>
    <path class="st1" d="M102.81,18.28h.24l22.72,23.72.12-.04v-22.64h3.48v31.2h-.24l-22.76-23.72-.08.04v22.64h-3.48v-31.2Z"/>
    <path class="st1" d="M143.72,19.32h15v3.2h-11.4v9.32h11.12v3.12h-11.12v11.32h11.4v3.2h-15v-30.16Z"/>
    <path class="st1" d="M168.84,19.32h3.72l9.08,21.88h.12l8.04-22.92h.24l7.92,22.92h.12l8.6-21.88h3.68l-12.28,31.2h-.24l-7.96-22.64h-.08l-7.92,22.64h-.24l-12.8-31.2Z"/>
    <path class="st1" d="M229.58,18.28h.24l13.44,31.2h-3.84l-3.12-7.4h-13.88l-3.24,7.4h-3.76l14.16-31.2ZM234.98,38.92l-5.4-12.88h-.08l-5.68,12.88h11.16Z"/>
    <path class="st1" d="M254.59,19.32h8.04c4.16,0,8.16,2.48,8.16,7.96s-3.32,7.8-7.64,8.48l10,13.72h-4.52l-9.36-13.56c-.4,0-.76,0-1.08-.04v13.6h-3.6v-30.16ZM260.02,33.28c4.04,0,7-1.52,7-5.88,0-3.24-2.32-5.04-5.36-5.04h-3.48v10.88c.56.04,1.2.04,1.84.04Z"/>
    <path class="st1" d="M284.48,19.32h3.6v13.4h.08l12.4-13.4h4.32l-13.44,14.24,14.92,15.92h-4.76l-12.92-13.84-.6.64v13.2h-3.6v-30.16Z"/>
  </g>
  <g>
    <path class="st1" d="M118.34,80.46h-10.58v10.47h11.83l-.64,4.38h-16.19v-32.52h16.08v4.44h-11.09v8.82h10.58v4.41Z"/>
    <path class="st1" d="M122.51,95.31v-34.12h4.98v34.12h-4.98Z"/>
    <path class="st1" d="M131.91,70.64h4.98v24.67h-4.98v-24.67ZM131.95,61.19h4.98v5.45h-4.98v-5.45Z"/>
    <path class="st1" d="M139.19,70.64h3.32v-6.3h4.96v6.3h3.97v4.13h-3.97v14.41c0,1.52.3,2.42,2.1,2.42.58,0,1.05-.01,1.52-.11v3.7c-.97.41-2.42.47-3.29.47-3.59,0-5.29-1.36-5.29-5.61v-15.27h-3.32v-4.13Z"/>
    <path class="st1" d="M157.74,84.18c0,3.7.53,7.44,3.94,7.44,3.19,0,3.59-2.83,3.7-3.64h4.79c-.08.73-.68,7.8-8.56,7.8s-8.83-6.7-8.83-12.91c0-7.82,2.87-12.65,8.97-12.65,6.93,0,8.61,5.35,8.61,11.7,0,.73-.03,1.78-.08,2.26h-12.55ZM165.45,80.51c0-3.02-.49-6.16-3.7-6.16-3.68,0-3.89,4.41-3.92,6.16h7.62Z"/>
    <path class="st1" d="M188.79,81.07v14.24h-5.03v-32.52h9.46c5.76,0,8.94,3.09,8.94,8.72,0,4.76-2.47,6.8-4.26,7.47,2.69,1.14,3.79,3.46,3.79,8.18v1.3c0,3.47.15,5.11.45,6.85h-4.92c-.47-1.49-.53-4.17-.53-6.92v-1.16c0-4.44-.98-6.17-4.9-6.17h-2.99ZM188.79,76.92h3.22c3.67,0,5.08-1.76,5.08-5.21,0-2.96-1.4-4.78-4.59-4.78h-3.71v9.99Z"/>
    <path class="st1" d="M222.93,82.74c0,8.86-3.17,13.04-9.06,13.04s-8.96-4-8.96-12.92,3.56-12.63,9.21-12.63,8.81,4.25,8.81,12.52ZM209.96,82.83c0,5.77,1.15,8.75,4.04,8.75s3.9-2.97,3.9-8.71-1.13-8.43-3.93-8.43-4,2.63-4,8.39Z"/>
    <path class="st1" d="M243.49,82.74c0,8.86-3.17,13.04-9.06,13.04s-8.96-4-8.96-12.92,3.56-12.63,9.21-12.63,8.81,4.25,8.81,12.52ZM230.51,82.83c0,5.77,1.15,8.75,4.04,8.75s3.9-2.97,3.9-8.71-1.13-8.43-3.93-8.43-4,2.63-4,8.39Z"/>
    <path class="st1" d="M247.75,95.31v-20.55h-2.99v-4.13h2.99v-2.74c0-3.96,1.69-7.02,6.44-7.02.8,0,1.73.13,2.23.27v4.22c-.43-.1-.92-.17-1.44-.17-1.74,0-2.25,1.02-2.25,2.99v2.45h3.63v4.13h-3.63v20.55h-4.98Z"/>
    <path class="st1" d="M258.48,70.64h4.98v24.67h-4.98v-24.67ZM258.51,61.19h4.98v5.45h-4.98v-5.45Z"/>
    <path class="st1" d="M267.9,78.3c0-5.07-.01-6.42-.05-7.66h4.79c.08.61.16,1.62.16,2.79.76-1.55,2.34-3.24,5.58-3.24,3.88,0,6.33,2.37,6.33,7.53v17.59h-4.99v-16.5c0-2.64-.66-4.32-3.12-4.32s-3.71,1.54-3.71,5.73v15.08h-4.99v-17.01Z"/>
    <path class="st1" d="M306,93.46c0,6.83-1.87,11.2-9.21,11.2-6.8,0-8.25-4.13-8.4-7.03h4.97c.1.96.54,2.93,3.61,2.93,3.44,0,4.11-2.57,4.11-7.11v-1.5c-.92,2.18-2.87,3.21-5.43,3.21-5.16,0-7.47-4.48-7.47-11.91,0-8.59,3.12-13.04,8-13.04,3.28,0,4.49,1.56,4.91,2.81.02-.86.13-1.83.21-2.39h4.78c-.05,1.44-.08,3.92-.08,7.33v15.49ZM293.3,83.13c0,5.39,1.37,7.81,3.93,7.81,3.19,0,3.95-3.09,3.95-8.52,0-4.89-.41-7.92-3.73-7.92-2.68,0-4.15,2.79-4.15,8.63Z"/>
  </g>
  <g>
    <polygon class="st2" points="17.16 95.01 26.54 95.01 26.54 54.75 87.79 96.85 87.79 69.83 22.98 22.07 16.83 17.55 17.16 95.01"/>
    <g>
      <polygon class="st0" points="77.02 22.38 87.74 22.38 87.72 17.55 77.02 17.55 77.02 22.38"/>
      <polygon class="st0" points="75.48 17.55 64.53 17.55 64.57 22.38 75.48 22.38 75.48 17.55"/>
    </g>
    <g>
      <polygon class="st0" points="83.14 30.36 87.78 30.36 87.75 23.91 83.14 23.91 83.14 30.36"/>
      <polygon class="st0" points="69.24 23.91 64.59 23.91 64.64 30.36 69.24 30.36 69.24 23.91"/>
      <rect class="st0" x="70.77" y="23.91" width="10.85" height="6.45"/>
    </g>
    <g>
      <polygon class="st0" points="77 38.33 87.82 38.33 87.79 31.89 77 31.89 77 38.33"/>
      <polygon class="st0" points="75.47 31.89 64.65 31.89 64.7 38.33 75.47 38.33 75.47 31.89"/>
    </g>
    <g>
      <polygon class="st0" points="83.14 46.31 87.87 46.31 87.83 39.87 83.14 39.87 83.14 46.31"/>
      <polygon class="st0" points="69.24 39.87 64.71 39.87 64.76 46.31 69.24 46.31 69.24 39.87"/>
      <rect class="st0" x="70.77" y="39.87" width="10.85" height="6.45"/>
    </g>
    <g>
      <polygon class="st0" points="77 54.29 87.91 54.29 87.87 47.84 77 47.84 77 54.29"/>
      <polygon class="st0" points="75.47 47.84 64.85 47.84 73.9 54.29 75.47 54.29 75.47 47.84"/>
    </g>
    <g>
      <polygon class="st0" points="83.14 60.89 87.96 64.32 87.92 55.82 83.14 55.82 83.14 60.89"/>
      <polygon class="st0" points="81.61 55.82 76.04 55.82 81.61 59.79 81.61 55.82"/>
    </g>
  </g>
</svg>